<mxfile host="app.diagrams.net" modified="2023-09-05T21:49:27.890Z" agent="Mozilla/5.0 (Windows NT 10.0; Win64; x64) AppleWebKit/537.36 (KHTML, like Gecko) Chrome/116.0.0.0 Safari/537.36" etag="sf4Q9R2yEJhjUBAi33zV" version="21.7.2" type="google">
  <diagram name="Page-1" id="4QKGSky_vGOtmV6RQfHH">
    <mxGraphModel grid="1" page="1" gridSize="10" guides="1" tooltips="1" connect="1" arrows="1" fold="1" pageScale="1" pageWidth="850" pageHeight="1100" math="0" shadow="0">
      <root>
        <mxCell id="0" />
        <mxCell id="1" parent="0" />
        <mxCell id="wEZlDZOcFeLsuTy_jWWD-1" value="VENDA" style="swimlane;fontStyle=0;childLayout=stackLayout;horizontal=1;startSize=30;horizontalStack=0;resizeParent=1;resizeParentMax=0;resizeLast=0;collapsible=1;marginBottom=0;whiteSpace=wrap;html=1;" vertex="1" parent="1">
          <mxGeometry x="170" y="310" width="160" height="210" as="geometry" />
        </mxCell>
        <mxCell id="wEZlDZOcFeLsuTy_jWWD-2" value="COD_VENDA" style="text;strokeColor=none;fillColor=none;align=left;verticalAlign=middle;spacingLeft=4;spacingRight=4;overflow=hidden;points=[[0,0.5],[1,0.5]];portConstraint=eastwest;rotatable=0;whiteSpace=wrap;html=1;" vertex="1" parent="wEZlDZOcFeLsuTy_jWWD-1">
          <mxGeometry y="30" width="160" height="30" as="geometry" />
        </mxCell>
        <mxCell id="wEZlDZOcFeLsuTy_jWWD-3" value="DTA_VENDA" style="text;strokeColor=none;fillColor=none;align=left;verticalAlign=middle;spacingLeft=4;spacingRight=4;overflow=hidden;points=[[0,0.5],[1,0.5]];portConstraint=eastwest;rotatable=0;whiteSpace=wrap;html=1;" vertex="1" parent="wEZlDZOcFeLsuTy_jWWD-1">
          <mxGeometry y="60" width="160" height="30" as="geometry" />
        </mxCell>
        <mxCell id="wEZlDZOcFeLsuTy_jWWD-4" value="VAL_VENDA" style="text;strokeColor=none;fillColor=none;align=left;verticalAlign=middle;spacingLeft=4;spacingRight=4;overflow=hidden;points=[[0,0.5],[1,0.5]];portConstraint=eastwest;rotatable=0;whiteSpace=wrap;html=1;" vertex="1" parent="wEZlDZOcFeLsuTy_jWWD-1">
          <mxGeometry y="90" width="160" height="30" as="geometry" />
        </mxCell>
        <mxCell id="wEZlDZOcFeLsuTy_jWWD-5" value="COD_VENDEDOR" style="text;strokeColor=none;fillColor=none;align=left;verticalAlign=middle;spacingLeft=4;spacingRight=4;overflow=hidden;points=[[0,0.5],[1,0.5]];portConstraint=eastwest;rotatable=0;whiteSpace=wrap;html=1;" vertex="1" parent="wEZlDZOcFeLsuTy_jWWD-1">
          <mxGeometry y="120" width="160" height="30" as="geometry" />
        </mxCell>
        <mxCell id="wEZlDZOcFeLsuTy_jWWD-6" value="COD_CLIENTE" style="text;strokeColor=none;fillColor=none;align=left;verticalAlign=middle;spacingLeft=4;spacingRight=4;overflow=hidden;points=[[0,0.5],[1,0.5]];portConstraint=eastwest;rotatable=0;whiteSpace=wrap;html=1;" vertex="1" parent="wEZlDZOcFeLsuTy_jWWD-1">
          <mxGeometry y="150" width="160" height="30" as="geometry" />
        </mxCell>
        <mxCell id="wEZlDZOcFeLsuTy_jWWD-7" value="COD_VENDA_PRODUTO" style="text;strokeColor=none;fillColor=none;align=left;verticalAlign=middle;spacingLeft=4;spacingRight=4;overflow=hidden;points=[[0,0.5],[1,0.5]];portConstraint=eastwest;rotatable=0;whiteSpace=wrap;html=1;" vertex="1" parent="wEZlDZOcFeLsuTy_jWWD-1">
          <mxGeometry y="180" width="160" height="30" as="geometry" />
        </mxCell>
        <mxCell id="wEZlDZOcFeLsuTy_jWWD-8" value="PRODUTO" style="swimlane;fontStyle=0;childLayout=stackLayout;horizontal=1;startSize=30;horizontalStack=0;resizeParent=1;resizeParentMax=0;resizeLast=0;collapsible=1;marginBottom=0;whiteSpace=wrap;html=1;" vertex="1" parent="1">
          <mxGeometry x="170" y="820" width="140" height="180" as="geometry" />
        </mxCell>
        <mxCell id="wEZlDZOcFeLsuTy_jWWD-9" value="COD_PRODUTO" style="text;strokeColor=none;fillColor=none;align=left;verticalAlign=middle;spacingLeft=4;spacingRight=4;overflow=hidden;points=[[0,0.5],[1,0.5]];portConstraint=eastwest;rotatable=0;whiteSpace=wrap;html=1;" vertex="1" parent="wEZlDZOcFeLsuTy_jWWD-8">
          <mxGeometry y="30" width="140" height="30" as="geometry" />
        </mxCell>
        <mxCell id="wEZlDZOcFeLsuTy_jWWD-10" value="NOM_PRODUTO" style="text;strokeColor=none;fillColor=none;align=left;verticalAlign=middle;spacingLeft=4;spacingRight=4;overflow=hidden;points=[[0,0.5],[1,0.5]];portConstraint=eastwest;rotatable=0;whiteSpace=wrap;html=1;" vertex="1" parent="wEZlDZOcFeLsuTy_jWWD-8">
          <mxGeometry y="60" width="140" height="30" as="geometry" />
        </mxCell>
        <mxCell id="wEZlDZOcFeLsuTy_jWWD-11" value="COD_CATEGORIA" style="text;strokeColor=none;fillColor=none;align=left;verticalAlign=middle;spacingLeft=4;spacingRight=4;overflow=hidden;points=[[0,0.5],[1,0.5]];portConstraint=eastwest;rotatable=0;whiteSpace=wrap;html=1;" vertex="1" parent="wEZlDZOcFeLsuTy_jWWD-8">
          <mxGeometry y="90" width="140" height="30" as="geometry" />
        </mxCell>
        <mxCell id="wEZlDZOcFeLsuTy_jWWD-12" value="COD_SEGMENTO" style="text;strokeColor=none;fillColor=none;align=left;verticalAlign=middle;spacingLeft=4;spacingRight=4;overflow=hidden;points=[[0,0.5],[1,0.5]];portConstraint=eastwest;rotatable=0;whiteSpace=wrap;html=1;" vertex="1" parent="wEZlDZOcFeLsuTy_jWWD-8">
          <mxGeometry y="120" width="140" height="30" as="geometry" />
        </mxCell>
        <mxCell id="wEZlDZOcFeLsuTy_jWWD-13" value="COD_FABRICANTE" style="text;strokeColor=none;fillColor=none;align=left;verticalAlign=middle;spacingLeft=4;spacingRight=4;overflow=hidden;points=[[0,0.5],[1,0.5]];portConstraint=eastwest;rotatable=0;whiteSpace=wrap;html=1;" vertex="1" parent="wEZlDZOcFeLsuTy_jWWD-8">
          <mxGeometry y="150" width="140" height="30" as="geometry" />
        </mxCell>
        <mxCell id="wEZlDZOcFeLsuTy_jWWD-14" value="LOJA" style="swimlane;fontStyle=0;childLayout=stackLayout;horizontal=1;startSize=30;horizontalStack=0;resizeParent=1;resizeParentMax=0;resizeLast=0;collapsible=1;marginBottom=0;whiteSpace=wrap;html=1;" vertex="1" parent="1">
          <mxGeometry x="480" y="595" width="140" height="120" as="geometry" />
        </mxCell>
        <mxCell id="wEZlDZOcFeLsuTy_jWWD-15" value="COD_LOJA" style="text;strokeColor=none;fillColor=none;align=left;verticalAlign=middle;spacingLeft=4;spacingRight=4;overflow=hidden;points=[[0,0.5],[1,0.5]];portConstraint=eastwest;rotatable=0;whiteSpace=wrap;html=1;" vertex="1" parent="wEZlDZOcFeLsuTy_jWWD-14">
          <mxGeometry y="30" width="140" height="30" as="geometry" />
        </mxCell>
        <mxCell id="wEZlDZOcFeLsuTy_jWWD-66" value="COD_FORNECEDOR" style="text;strokeColor=none;fillColor=none;align=left;verticalAlign=middle;spacingLeft=4;spacingRight=4;overflow=hidden;points=[[0,0.5],[1,0.5]];portConstraint=eastwest;rotatable=0;whiteSpace=wrap;html=1;" vertex="1" parent="wEZlDZOcFeLsuTy_jWWD-14">
          <mxGeometry y="60" width="140" height="30" as="geometry" />
        </mxCell>
        <mxCell id="wEZlDZOcFeLsuTy_jWWD-17" value="COD_LOCALIZACAO" style="text;strokeColor=none;fillColor=none;align=left;verticalAlign=middle;spacingLeft=4;spacingRight=4;overflow=hidden;points=[[0,0.5],[1,0.5]];portConstraint=eastwest;rotatable=0;whiteSpace=wrap;html=1;" vertex="1" parent="wEZlDZOcFeLsuTy_jWWD-14">
          <mxGeometry y="90" width="140" height="30" as="geometry" />
        </mxCell>
        <mxCell id="wEZlDZOcFeLsuTy_jWWD-18" value="VENDEDOR" style="swimlane;fontStyle=0;childLayout=stackLayout;horizontal=1;startSize=30;horizontalStack=0;resizeParent=1;resizeParentMax=0;resizeLast=0;collapsible=1;marginBottom=0;whiteSpace=wrap;html=1;" vertex="1" parent="1">
          <mxGeometry x="480" y="360" width="140" height="120" as="geometry" />
        </mxCell>
        <mxCell id="wEZlDZOcFeLsuTy_jWWD-19" value="COD_VENDEDOR" style="text;strokeColor=none;fillColor=none;align=left;verticalAlign=middle;spacingLeft=4;spacingRight=4;overflow=hidden;points=[[0,0.5],[1,0.5]];portConstraint=eastwest;rotatable=0;whiteSpace=wrap;html=1;" vertex="1" parent="wEZlDZOcFeLsuTy_jWWD-18">
          <mxGeometry y="30" width="140" height="30" as="geometry" />
        </mxCell>
        <mxCell id="wEZlDZOcFeLsuTy_jWWD-20" value="NOM_VENDEDOR" style="text;strokeColor=none;fillColor=none;align=left;verticalAlign=middle;spacingLeft=4;spacingRight=4;overflow=hidden;points=[[0,0.5],[1,0.5]];portConstraint=eastwest;rotatable=0;whiteSpace=wrap;html=1;" vertex="1" parent="wEZlDZOcFeLsuTy_jWWD-18">
          <mxGeometry y="60" width="140" height="30" as="geometry" />
        </mxCell>
        <mxCell id="wEZlDZOcFeLsuTy_jWWD-21" value="COD_LOJA" style="text;strokeColor=none;fillColor=none;align=left;verticalAlign=middle;spacingLeft=4;spacingRight=4;overflow=hidden;points=[[0,0.5],[1,0.5]];portConstraint=eastwest;rotatable=0;whiteSpace=wrap;html=1;" vertex="1" parent="wEZlDZOcFeLsuTy_jWWD-18">
          <mxGeometry y="90" width="140" height="30" as="geometry" />
        </mxCell>
        <mxCell id="wEZlDZOcFeLsuTy_jWWD-22" value="CLIENTE" style="swimlane;fontStyle=0;childLayout=stackLayout;horizontal=1;startSize=30;horizontalStack=0;resizeParent=1;resizeParentMax=0;resizeLast=0;collapsible=1;marginBottom=0;whiteSpace=wrap;html=1;" vertex="1" parent="1">
          <mxGeometry x="-60" y="360" width="140" height="90" as="geometry" />
        </mxCell>
        <mxCell id="wEZlDZOcFeLsuTy_jWWD-23" value="COD_CLIENTE" style="text;strokeColor=none;fillColor=none;align=left;verticalAlign=middle;spacingLeft=4;spacingRight=4;overflow=hidden;points=[[0,0.5],[1,0.5]];portConstraint=eastwest;rotatable=0;whiteSpace=wrap;html=1;" vertex="1" parent="wEZlDZOcFeLsuTy_jWWD-22">
          <mxGeometry y="30" width="140" height="30" as="geometry" />
        </mxCell>
        <mxCell id="wEZlDZOcFeLsuTy_jWWD-24" value="NOM_CLIENTE" style="text;strokeColor=none;fillColor=none;align=left;verticalAlign=middle;spacingLeft=4;spacingRight=4;overflow=hidden;points=[[0,0.5],[1,0.5]];portConstraint=eastwest;rotatable=0;whiteSpace=wrap;html=1;" vertex="1" parent="wEZlDZOcFeLsuTy_jWWD-22">
          <mxGeometry y="60" width="140" height="30" as="geometry" />
        </mxCell>
        <mxCell id="wEZlDZOcFeLsuTy_jWWD-36" value="VENDA_PRODUTO" style="swimlane;fontStyle=0;childLayout=stackLayout;horizontal=1;startSize=30;horizontalStack=0;resizeParent=1;resizeParentMax=0;resizeLast=0;collapsible=1;marginBottom=0;whiteSpace=wrap;html=1;" vertex="1" parent="1">
          <mxGeometry x="145" y="580" width="190" height="150" as="geometry" />
        </mxCell>
        <mxCell id="wEZlDZOcFeLsuTy_jWWD-37" value="COD_VENDA_PRODUTO" style="text;strokeColor=none;fillColor=none;align=left;verticalAlign=middle;spacingLeft=4;spacingRight=4;overflow=hidden;points=[[0,0.5],[1,0.5]];portConstraint=eastwest;rotatable=0;whiteSpace=wrap;html=1;" vertex="1" parent="wEZlDZOcFeLsuTy_jWWD-36">
          <mxGeometry y="30" width="190" height="30" as="geometry" />
        </mxCell>
        <mxCell id="wEZlDZOcFeLsuTy_jWWD-38" value="COD_VENDA" style="text;strokeColor=none;fillColor=none;align=left;verticalAlign=middle;spacingLeft=4;spacingRight=4;overflow=hidden;points=[[0,0.5],[1,0.5]];portConstraint=eastwest;rotatable=0;whiteSpace=wrap;html=1;" vertex="1" parent="wEZlDZOcFeLsuTy_jWWD-36">
          <mxGeometry y="60" width="190" height="30" as="geometry" />
        </mxCell>
        <mxCell id="wEZlDZOcFeLsuTy_jWWD-39" value="COD_PRODUTO" style="text;strokeColor=none;fillColor=none;align=left;verticalAlign=middle;spacingLeft=4;spacingRight=4;overflow=hidden;points=[[0,0.5],[1,0.5]];portConstraint=eastwest;rotatable=0;whiteSpace=wrap;html=1;" vertex="1" parent="wEZlDZOcFeLsuTy_jWWD-36">
          <mxGeometry y="90" width="190" height="30" as="geometry" />
        </mxCell>
        <mxCell id="wEZlDZOcFeLsuTy_jWWD-40" value="QTD_PRODUTO" style="text;strokeColor=none;fillColor=none;align=left;verticalAlign=middle;spacingLeft=4;spacingRight=4;overflow=hidden;points=[[0,0.5],[1,0.5]];portConstraint=eastwest;rotatable=0;whiteSpace=wrap;html=1;" vertex="1" parent="wEZlDZOcFeLsuTy_jWWD-36">
          <mxGeometry y="120" width="190" height="30" as="geometry" />
        </mxCell>
        <mxCell id="wEZlDZOcFeLsuTy_jWWD-44" value="" style="endArrow=none;html=1;rounded=0;exitX=0.5;exitY=0;exitDx=0;exitDy=0;" edge="1" parent="1" source="wEZlDZOcFeLsuTy_jWWD-8">
          <mxGeometry width="50" height="50" relative="1" as="geometry">
            <mxPoint x="190" y="780" as="sourcePoint" />
            <mxPoint x="240" y="730" as="targetPoint" />
          </mxGeometry>
        </mxCell>
        <mxCell id="wEZlDZOcFeLsuTy_jWWD-45" value="" style="endArrow=none;html=1;rounded=0;exitX=0.553;exitY=-0.007;exitDx=0;exitDy=0;exitPerimeter=0;" edge="1" parent="1" source="wEZlDZOcFeLsuTy_jWWD-36">
          <mxGeometry width="50" height="50" relative="1" as="geometry">
            <mxPoint x="200" y="570" as="sourcePoint" />
            <mxPoint x="250" y="520" as="targetPoint" />
          </mxGeometry>
        </mxCell>
        <mxCell id="wEZlDZOcFeLsuTy_jWWD-47" value="" style="endArrow=none;html=1;rounded=0;entryX=0.006;entryY=0.033;entryDx=0;entryDy=0;entryPerimeter=0;" edge="1" parent="1" target="wEZlDZOcFeLsuTy_jWWD-4">
          <mxGeometry width="50" height="50" relative="1" as="geometry">
            <mxPoint x="80" y="401" as="sourcePoint" />
            <mxPoint x="110" y="350" as="targetPoint" />
          </mxGeometry>
        </mxCell>
        <mxCell id="wEZlDZOcFeLsuTy_jWWD-48" value="" style="endArrow=none;html=1;rounded=0;entryX=-0.014;entryY=0.3;entryDx=0;entryDy=0;entryPerimeter=0;" edge="1" parent="1" target="wEZlDZOcFeLsuTy_jWWD-19">
          <mxGeometry width="50" height="50" relative="1" as="geometry">
            <mxPoint x="330" y="400" as="sourcePoint" />
            <mxPoint x="380" y="350" as="targetPoint" />
          </mxGeometry>
        </mxCell>
        <mxCell id="wEZlDZOcFeLsuTy_jWWD-50" value="" style="endArrow=none;html=1;rounded=0;exitX=0.579;exitY=0.017;exitDx=0;exitDy=0;exitPerimeter=0;" edge="1" parent="1" source="wEZlDZOcFeLsuTy_jWWD-14">
          <mxGeometry width="50" height="50" relative="1" as="geometry">
            <mxPoint x="510" y="530" as="sourcePoint" />
            <mxPoint x="560" y="480" as="targetPoint" />
          </mxGeometry>
        </mxCell>
        <mxCell id="wEZlDZOcFeLsuTy_jWWD-51" value="ESTOQUE" style="swimlane;fontStyle=0;childLayout=stackLayout;horizontal=1;startSize=30;horizontalStack=0;resizeParent=1;resizeParentMax=0;resizeLast=0;collapsible=1;marginBottom=0;whiteSpace=wrap;html=1;" vertex="1" parent="1">
          <mxGeometry x="480" y="840" width="140" height="150" as="geometry" />
        </mxCell>
        <mxCell id="wEZlDZOcFeLsuTy_jWWD-52" value="COD_ESTOQUE" style="text;strokeColor=none;fillColor=none;align=left;verticalAlign=middle;spacingLeft=4;spacingRight=4;overflow=hidden;points=[[0,0.5],[1,0.5]];portConstraint=eastwest;rotatable=0;whiteSpace=wrap;html=1;" vertex="1" parent="wEZlDZOcFeLsuTy_jWWD-51">
          <mxGeometry y="30" width="140" height="30" as="geometry" />
        </mxCell>
        <mxCell id="wEZlDZOcFeLsuTy_jWWD-53" value="COD_LOJA" style="text;strokeColor=none;fillColor=none;align=left;verticalAlign=middle;spacingLeft=4;spacingRight=4;overflow=hidden;points=[[0,0.5],[1,0.5]];portConstraint=eastwest;rotatable=0;whiteSpace=wrap;html=1;" vertex="1" parent="wEZlDZOcFeLsuTy_jWWD-51">
          <mxGeometry y="60" width="140" height="30" as="geometry" />
        </mxCell>
        <mxCell id="wEZlDZOcFeLsuTy_jWWD-54" value="COD_PRODUTO" style="text;strokeColor=none;fillColor=none;align=left;verticalAlign=middle;spacingLeft=4;spacingRight=4;overflow=hidden;points=[[0,0.5],[1,0.5]];portConstraint=eastwest;rotatable=0;whiteSpace=wrap;html=1;" vertex="1" parent="wEZlDZOcFeLsuTy_jWWD-51">
          <mxGeometry y="90" width="140" height="30" as="geometry" />
        </mxCell>
        <mxCell id="wEZlDZOcFeLsuTy_jWWD-55" value="QTD_ESTOQUE" style="text;strokeColor=none;fillColor=none;align=left;verticalAlign=middle;spacingLeft=4;spacingRight=4;overflow=hidden;points=[[0,0.5],[1,0.5]];portConstraint=eastwest;rotatable=0;whiteSpace=wrap;html=1;" vertex="1" parent="wEZlDZOcFeLsuTy_jWWD-51">
          <mxGeometry y="120" width="140" height="30" as="geometry" />
        </mxCell>
        <mxCell id="wEZlDZOcFeLsuTy_jWWD-57" value="" style="endArrow=none;html=1;rounded=0;exitX=1;exitY=0;exitDx=0;exitDy=0;exitPerimeter=0;" edge="1" parent="1" source="wEZlDZOcFeLsuTy_jWWD-10">
          <mxGeometry width="50" height="50" relative="1" as="geometry">
            <mxPoint x="430" y="930" as="sourcePoint" />
            <mxPoint x="480" y="880" as="targetPoint" />
          </mxGeometry>
        </mxCell>
        <mxCell id="wEZlDZOcFeLsuTy_jWWD-61" value="" style="endArrow=none;html=1;rounded=0;exitX=0.571;exitY=0.013;exitDx=0;exitDy=0;exitPerimeter=0;entryX=0.579;entryY=1;entryDx=0;entryDy=0;entryPerimeter=0;" edge="1" parent="1" source="wEZlDZOcFeLsuTy_jWWD-51" target="wEZlDZOcFeLsuTy_jWWD-17">
          <mxGeometry width="50" height="50" relative="1" as="geometry">
            <mxPoint x="510" y="770" as="sourcePoint" />
            <mxPoint x="560" y="750" as="targetPoint" />
          </mxGeometry>
        </mxCell>
        <mxCell id="wEZlDZOcFeLsuTy_jWWD-62" value="FORNECEDOR" style="swimlane;fontStyle=0;childLayout=stackLayout;horizontal=1;startSize=30;horizontalStack=0;resizeParent=1;resizeParentMax=0;resizeLast=0;collapsible=1;marginBottom=0;whiteSpace=wrap;html=1;" vertex="1" parent="1">
          <mxGeometry x="790" y="595" width="140" height="90" as="geometry" />
        </mxCell>
        <mxCell id="wEZlDZOcFeLsuTy_jWWD-63" value="COD_FORNECEDOR" style="text;strokeColor=none;fillColor=none;align=left;verticalAlign=middle;spacingLeft=4;spacingRight=4;overflow=hidden;points=[[0,0.5],[1,0.5]];portConstraint=eastwest;rotatable=0;whiteSpace=wrap;html=1;" vertex="1" parent="wEZlDZOcFeLsuTy_jWWD-62">
          <mxGeometry y="30" width="140" height="30" as="geometry" />
        </mxCell>
        <mxCell id="wEZlDZOcFeLsuTy_jWWD-64" value="NOM_FORNECEDOR" style="text;strokeColor=none;fillColor=none;align=left;verticalAlign=middle;spacingLeft=4;spacingRight=4;overflow=hidden;points=[[0,0.5],[1,0.5]];portConstraint=eastwest;rotatable=0;whiteSpace=wrap;html=1;" vertex="1" parent="wEZlDZOcFeLsuTy_jWWD-62">
          <mxGeometry y="60" width="140" height="30" as="geometry" />
        </mxCell>
        <mxCell id="wEZlDZOcFeLsuTy_jWWD-67" value="" style="endArrow=none;html=1;rounded=0;entryX=0;entryY=0.5;entryDx=0;entryDy=0;" edge="1" parent="1" target="wEZlDZOcFeLsuTy_jWWD-63">
          <mxGeometry width="50" height="50" relative="1" as="geometry">
            <mxPoint x="620" y="640" as="sourcePoint" />
            <mxPoint x="670" y="590" as="targetPoint" />
          </mxGeometry>
        </mxCell>
        <mxCell id="wEZlDZOcFeLsuTy_jWWD-68" value="FABRICANTE" style="swimlane;fontStyle=0;childLayout=stackLayout;horizontal=1;startSize=30;horizontalStack=0;resizeParent=1;resizeParentMax=0;resizeLast=0;collapsible=1;marginBottom=0;whiteSpace=wrap;html=1;" vertex="1" parent="1">
          <mxGeometry x="-160" y="960" width="140" height="90" as="geometry" />
        </mxCell>
        <mxCell id="wEZlDZOcFeLsuTy_jWWD-70" value="COD_FABRICANTE" style="text;strokeColor=none;fillColor=none;align=left;verticalAlign=middle;spacingLeft=4;spacingRight=4;overflow=hidden;points=[[0,0.5],[1,0.5]];portConstraint=eastwest;rotatable=0;whiteSpace=wrap;html=1;" vertex="1" parent="wEZlDZOcFeLsuTy_jWWD-68">
          <mxGeometry y="30" width="140" height="30" as="geometry" />
        </mxCell>
        <mxCell id="wEZlDZOcFeLsuTy_jWWD-69" value="NOM_FABRICANTE" style="text;strokeColor=none;fillColor=none;align=left;verticalAlign=middle;spacingLeft=4;spacingRight=4;overflow=hidden;points=[[0,0.5],[1,0.5]];portConstraint=eastwest;rotatable=0;whiteSpace=wrap;html=1;" vertex="1" parent="wEZlDZOcFeLsuTy_jWWD-68">
          <mxGeometry y="60" width="140" height="30" as="geometry" />
        </mxCell>
        <mxCell id="wEZlDZOcFeLsuTy_jWWD-72" value="CATEGORIA" style="swimlane;fontStyle=0;childLayout=stackLayout;horizontal=1;startSize=30;horizontalStack=0;resizeParent=1;resizeParentMax=0;resizeLast=0;collapsible=1;marginBottom=0;whiteSpace=wrap;html=1;" vertex="1" parent="1">
          <mxGeometry x="-160" y="720" width="140" height="90" as="geometry" />
        </mxCell>
        <mxCell id="wEZlDZOcFeLsuTy_jWWD-73" value="COD_CATEGORIA" style="text;strokeColor=none;fillColor=none;align=left;verticalAlign=middle;spacingLeft=4;spacingRight=4;overflow=hidden;points=[[0,0.5],[1,0.5]];portConstraint=eastwest;rotatable=0;whiteSpace=wrap;html=1;" vertex="1" parent="wEZlDZOcFeLsuTy_jWWD-72">
          <mxGeometry y="30" width="140" height="30" as="geometry" />
        </mxCell>
        <mxCell id="wEZlDZOcFeLsuTy_jWWD-74" value="DES_CATEGORIA" style="text;strokeColor=none;fillColor=none;align=left;verticalAlign=middle;spacingLeft=4;spacingRight=4;overflow=hidden;points=[[0,0.5],[1,0.5]];portConstraint=eastwest;rotatable=0;whiteSpace=wrap;html=1;" vertex="1" parent="wEZlDZOcFeLsuTy_jWWD-72">
          <mxGeometry y="60" width="140" height="30" as="geometry" />
        </mxCell>
        <mxCell id="wEZlDZOcFeLsuTy_jWWD-76" value="SEGMENTO" style="swimlane;fontStyle=0;childLayout=stackLayout;horizontal=1;startSize=30;horizontalStack=0;resizeParent=1;resizeParentMax=0;resizeLast=0;collapsible=1;marginBottom=0;whiteSpace=wrap;html=1;" vertex="1" parent="1">
          <mxGeometry x="-160" y="840" width="140" height="90" as="geometry" />
        </mxCell>
        <mxCell id="wEZlDZOcFeLsuTy_jWWD-77" value="COD_SEGMENTO" style="text;strokeColor=none;fillColor=none;align=left;verticalAlign=middle;spacingLeft=4;spacingRight=4;overflow=hidden;points=[[0,0.5],[1,0.5]];portConstraint=eastwest;rotatable=0;whiteSpace=wrap;html=1;" vertex="1" parent="wEZlDZOcFeLsuTy_jWWD-76">
          <mxGeometry y="30" width="140" height="30" as="geometry" />
        </mxCell>
        <mxCell id="wEZlDZOcFeLsuTy_jWWD-78" value="DES_SEGMENTO" style="text;strokeColor=none;fillColor=none;align=left;verticalAlign=middle;spacingLeft=4;spacingRight=4;overflow=hidden;points=[[0,0.5],[1,0.5]];portConstraint=eastwest;rotatable=0;whiteSpace=wrap;html=1;" vertex="1" parent="wEZlDZOcFeLsuTy_jWWD-76">
          <mxGeometry y="60" width="140" height="30" as="geometry" />
        </mxCell>
        <mxCell id="wEZlDZOcFeLsuTy_jWWD-80" value="" style="endArrow=none;html=1;rounded=0;entryX=0;entryY=0;entryDx=0;entryDy=0;entryPerimeter=0;" edge="1" parent="1" target="wEZlDZOcFeLsuTy_jWWD-10">
          <mxGeometry width="50" height="50" relative="1" as="geometry">
            <mxPoint x="-20" y="880" as="sourcePoint" />
            <mxPoint x="30" y="830" as="targetPoint" />
          </mxGeometry>
        </mxCell>
        <mxCell id="wEZlDZOcFeLsuTy_jWWD-81" value="" style="endArrow=none;html=1;rounded=0;entryX=0;entryY=0.117;entryDx=0;entryDy=0;entryPerimeter=0;" edge="1" parent="1" target="wEZlDZOcFeLsuTy_jWWD-8">
          <mxGeometry width="50" height="50" relative="1" as="geometry">
            <mxPoint x="-20" y="800" as="sourcePoint" />
            <mxPoint x="30" y="750" as="targetPoint" />
            <Array as="points">
              <mxPoint x="80" y="800" />
              <mxPoint x="80" y="840" />
            </Array>
          </mxGeometry>
        </mxCell>
        <mxCell id="wEZlDZOcFeLsuTy_jWWD-82" value="" style="endArrow=none;html=1;rounded=0;entryX=0.014;entryY=0.733;entryDx=0;entryDy=0;entryPerimeter=0;" edge="1" parent="1" target="wEZlDZOcFeLsuTy_jWWD-12">
          <mxGeometry width="50" height="50" relative="1" as="geometry">
            <mxPoint x="-20" y="1000" as="sourcePoint" />
            <mxPoint x="30" y="950" as="targetPoint" />
            <Array as="points">
              <mxPoint x="80" y="1000" />
              <mxPoint x="80" y="962" />
            </Array>
          </mxGeometry>
        </mxCell>
        <mxCell id="wEZlDZOcFeLsuTy_jWWD-83" value="LOCALIZACAO" style="swimlane;fontStyle=0;childLayout=stackLayout;horizontal=1;startSize=30;horizontalStack=0;resizeParent=1;resizeParentMax=0;resizeLast=0;collapsible=1;marginBottom=0;whiteSpace=wrap;html=1;" vertex="1" parent="1">
          <mxGeometry x="790" y="720" width="140" height="120" as="geometry" />
        </mxCell>
        <mxCell id="wEZlDZOcFeLsuTy_jWWD-84" value="COD_LOCALIZACAO" style="text;strokeColor=none;fillColor=none;align=left;verticalAlign=middle;spacingLeft=4;spacingRight=4;overflow=hidden;points=[[0,0.5],[1,0.5]];portConstraint=eastwest;rotatable=0;whiteSpace=wrap;html=1;" vertex="1" parent="wEZlDZOcFeLsuTy_jWWD-83">
          <mxGeometry y="30" width="140" height="30" as="geometry" />
        </mxCell>
        <mxCell id="wEZlDZOcFeLsuTy_jWWD-85" value="NOM_CIDADE" style="text;strokeColor=none;fillColor=none;align=left;verticalAlign=middle;spacingLeft=4;spacingRight=4;overflow=hidden;points=[[0,0.5],[1,0.5]];portConstraint=eastwest;rotatable=0;whiteSpace=wrap;html=1;" vertex="1" parent="wEZlDZOcFeLsuTy_jWWD-83">
          <mxGeometry y="60" width="140" height="30" as="geometry" />
        </mxCell>
        <mxCell id="wEZlDZOcFeLsuTy_jWWD-86" value="NOM_ESTADO" style="text;strokeColor=none;fillColor=none;align=left;verticalAlign=middle;spacingLeft=4;spacingRight=4;overflow=hidden;points=[[0,0.5],[1,0.5]];portConstraint=eastwest;rotatable=0;whiteSpace=wrap;html=1;" vertex="1" parent="wEZlDZOcFeLsuTy_jWWD-83">
          <mxGeometry y="90" width="140" height="30" as="geometry" />
        </mxCell>
        <mxCell id="wEZlDZOcFeLsuTy_jWWD-87" value="" style="endArrow=none;html=1;rounded=0;entryX=0;entryY=0.3;entryDx=0;entryDy=0;entryPerimeter=0;" edge="1" parent="1" target="wEZlDZOcFeLsuTy_jWWD-84">
          <mxGeometry width="50" height="50" relative="1" as="geometry">
            <mxPoint x="620" y="680" as="sourcePoint" />
            <mxPoint x="670" y="630" as="targetPoint" />
            <Array as="points">
              <mxPoint x="680" y="680" />
              <mxPoint x="680" y="760" />
            </Array>
          </mxGeometry>
        </mxCell>
      </root>
    </mxGraphModel>
  </diagram>
</mxfile>
